<svg width="17" height="17" viewBox="0 0 17 17" fill="none" xmlns="http://www.w3.org/2000/svg">
<path d="M6.68833 0.226937C7.78793 -0.0385859 8.94099 -0.0653164 10.0566 0.116451C10.7747 0.233412 11.4737 0.446809 12.1346 0.750855C12.7477 1.03438 13.3235 1.39229 13.8491 1.81651C14.3616 2.22148 14.8262 2.68364 15.2338 3.19402C15.6443 3.71076 15.988 4.27716 16.2568 4.87983C16.5667 5.57988 16.7842 6.31731 16.9037 7.07351C16.975 7.57604 17.0178 8.08571 16.9928 8.59359C16.9554 9.48282 16.7897 10.3703 16.4742 11.2025C15.9984 12.4606 15.2142 13.6029 14.202 14.4886C13.6855 14.9404 13.1172 15.3292 12.5089 15.6469C11.7221 16.0569 10.8741 16.3368 9.99782 16.4755C8.90535 16.6555 7.77724 16.611 6.69902 16.3633C6.04619 16.215 5.41538 15.9825 4.8224 15.6718C4.75468 15.638 4.68874 15.5934 4.61032 15.5845C4.53904 15.5756 4.46953 15.5952 4.40359 15.6184C3.0331 16.055 1.66261 16.4892 0.292125 16.921C0.194105 16.9442 0.104997 17.0066 0.00163096 16.9994C-0.00325966 16.9588 0.00289651 16.9175 0.0194527 16.88C0.495292 15.4865 0.960438 14.0876 1.44162 12.6923C1.47549 12.6121 1.4541 12.523 1.40955 12.4535C1.04571 11.8392 0.766365 11.1786 0.579054 10.4897C0.34559 9.63073 0.240442 8.73258 0.28856 7.84335C0.376318 6.34584 0.867747 4.89999 1.71073 3.65913C2.43429 2.60773 3.3931 1.71672 4.50696 1.09122C5.19067 0.703758 5.92477 0.412897 6.68833 0.226937ZM7.96437 1.42981C7.63645 1.46367 7.30675 1.50644 6.98774 1.59732C6.09665 1.83077 5.23765 2.20856 4.4927 2.75208C4.00547 3.10835 3.56951 3.52988 3.19706 4.00485C2.80498 4.50382 2.48419 5.05625 2.22756 5.63541C1.92334 6.32256 1.74236 7.05786 1.69291 7.80771C1.64041 8.65258 1.74001 9.50001 1.98697 10.3097C2.19355 10.9799 2.50384 11.6137 2.90657 12.1879C2.94756 12.2468 2.98498 12.3127 2.9832 12.3875C2.97964 12.4731 2.94043 12.5515 2.91548 12.6335C2.77469 13.0469 2.6339 13.4585 2.49489 13.872C2.38617 14.1803 2.29172 14.4921 2.17766 14.7986C2.16697 14.8236 2.17766 14.8485 2.18122 14.8735C2.24182 14.8895 2.29528 14.8485 2.35231 14.8325C2.99746 14.6276 3.6426 14.4262 4.28597 14.2141C4.41428 14.1749 4.53725 14.1232 4.66913 14.0947C4.79567 14.068 4.92398 14.1143 5.03091 14.1803C5.75982 14.6151 6.56002 14.9358 7.39585 15.0891C8.58456 15.3119 9.82317 15.1835 10.962 14.7951C11.8806 14.4814 12.7194 13.9705 13.4196 13.2982C14.1004 12.6459 14.6635 11.8636 15.0396 10.9975C15.4869 9.96397 15.658 8.8199 15.5671 7.699C15.462 6.41416 14.9665 5.17208 14.193 4.14385C13.4624 3.1762 12.4679 2.41706 11.3558 1.93769C10.6022 1.62037 9.79734 1.44226 8.9802 1.41199C8.64159 1.40308 8.3012 1.39417 7.96437 1.42981Z" fill="#8A8A8A"/>
<path d="M5.72596 4.23651C5.89705 4.208 6.06457 4.27215 6.23566 4.2579C6.31942 4.25255 6.40853 4.25612 6.48338 4.2971C6.58853 4.35056 6.65803 4.45392 6.69902 4.56084C6.89863 5.0812 7.09288 5.60333 7.29071 6.12547C7.32635 6.23239 7.38694 6.33753 7.37803 6.45336C7.37268 6.54781 7.32278 6.62978 7.27823 6.70998C7.16239 6.90778 7.00556 7.07707 6.84516 7.23924C6.77031 7.31943 6.68299 7.39071 6.63308 7.49051C6.59031 7.57961 6.63665 7.67584 6.67942 7.75425C6.96991 8.28529 7.32635 8.78248 7.75763 9.2066C8.15944 9.60457 8.62206 9.93602 9.12812 10.1885C9.23862 10.2455 9.35624 10.2883 9.46139 10.3542C9.53624 10.397 9.62178 10.4344 9.71089 10.4309C9.78956 10.4249 9.86321 10.39 9.91762 10.3328C10.1689 10.0834 10.3988 9.81428 10.6216 9.53984C10.6786 9.47391 10.7374 9.40085 10.8212 9.37055C10.9139 9.34026 11.0083 9.38124 11.0939 9.41688C11.6642 9.67706 12.2095 9.98713 12.762 10.2812C12.8333 10.3186 12.9063 10.3631 12.9455 10.4362C12.9919 10.5217 12.9901 10.6215 12.9847 10.7142C12.9616 11.0243 12.8689 11.3326 12.6907 11.5892C12.5232 11.8315 12.2879 12.0222 12.0259 12.1541C11.7568 12.2895 11.4645 12.3733 11.1669 12.4196C10.9628 12.4511 10.7548 12.4469 10.5521 12.4071C10.3721 12.3733 10.1992 12.3091 10.0263 12.2539C9.35624 12.0347 8.69506 11.7727 8.0909 11.4074C7.60911 11.113 7.1635 10.7631 6.76318 10.3649C6.3016 9.91051 5.90061 9.39906 5.52992 8.87158C5.31048 8.55626 5.10763 8.2297 4.9222 7.89325C4.78911 7.66024 4.68326 7.41269 4.60676 7.15548C4.53012 6.89887 4.46953 6.63513 4.45706 6.36782C4.44814 5.85995 4.58894 5.34316 4.88299 4.92616C5.00922 4.74654 5.15773 4.58367 5.32497 4.44145C5.43725 4.33631 5.57448 4.25914 5.72596 4.23651Z" fill="#8A8A8A"/>
</svg>
