<svg width="17" height="19" viewBox="0 0 17 19" fill="none" xmlns="http://www.w3.org/2000/svg">
<path d="M7.3526 0.0264258C7.99669 -0.0153378 8.64079 0.000174401 9.28488 0.0200618C10.1602 0.0459154 11.0356 0.145353 11.8918 0.340249C12.6907 0.523213 13.4763 0.79766 14.1968 1.20535C14.7262 1.49969 15.2079 1.89942 15.5748 2.39661C16.0698 3.06085 16.3852 3.85038 16.6012 4.65383C16.9624 6.0539 17.0369 7.51762 16.9853 8.96144C16.9605 9.64557 16.9031 10.3277 16.8267 11.0079C16.7158 11.9704 16.4616 12.927 15.9838 13.7662C15.6829 14.2967 15.2909 14.7651 14.8275 15.1484C14.4739 15.4427 14.0745 15.6774 13.6597 15.8624C13.1838 16.0692 12.6831 16.1965 12.1862 16.3337C10.9381 16.638 9.64993 16.7553 8.36939 16.7454C7.947 16.7394 7.52461 16.7215 7.10222 16.6837C6.68557 17.1889 6.2651 17.69 5.8408 18.1872C5.68216 18.3662 5.53691 18.5611 5.36298 18.7242C5.21773 18.8574 5.04763 18.9787 4.85077 18.9966C4.62333 19.0205 4.37677 18.9171 4.2621 18.7043C4.10729 18.4219 4.10155 18.0878 4.10538 17.7736C4.10155 17.2366 4.11876 16.6996 4.11302 16.1627C4.11493 16.1269 4.08244 16.105 4.05377 16.099C3.35234 15.8842 2.68149 15.5382 2.11767 15.049C1.65262 14.6423 1.26327 14.1502 0.969006 13.5972C0.535151 12.7957 0.2886 11.8988 0.154812 10.9959C0.120409 10.7573 0.0879177 10.5166 0.0726277 10.276C0.0535151 9.98365 0.0229351 9.6933 0.0191126 9.40095C0.01529 9.1623 0.00955628 8.92366 0 8.68501C0.00764502 7.68268 0.0267576 6.67837 0.177747 5.68797C0.286688 4.95413 0.466346 4.23023 0.758768 3.55207C0.993853 3.00914 1.30348 2.49803 1.69528 2.06051C1.85774 1.87556 2.04504 1.71845 2.23808 1.57128C2.92422 1.05421 3.72121 0.722087 4.5335 0.483438C5.45281 0.218936 6.40271 0.0821105 7.3526 0.0264258ZM5.67069 1.58759C4.92913 1.74868 4.19521 1.98931 3.53582 2.38308C3.18797 2.59787 2.8535 2.84845 2.59357 3.17261C2.17501 3.68372 1.87876 4.29625 1.68955 4.93663C1.42771 5.81366 1.33788 6.73445 1.30921 7.64927C1.28819 8.81865 1.24996 10.002 1.4774 11.1534C1.60737 11.8256 1.82907 12.4859 2.18648 13.0646C2.56008 13.6714 3.08002 14.1656 3.69446 14.4981C3.98497 14.6592 4.2965 14.7745 4.61186 14.874C4.62333 15.1166 4.61377 15.3612 4.61568 15.6038C4.6195 16.4053 4.59466 17.2087 4.60804 18.0102C4.60995 18.1077 4.6023 18.2111 4.65008 18.2986C4.66083 18.3242 4.67843 18.3461 4.7008 18.3616C4.72316 18.3771 4.74935 18.3856 4.77623 18.3861C4.85459 18.3861 4.92339 18.3344 4.97882 18.2807C5.05718 18.2031 5.12981 18.1176 5.20053 18.0361C5.9096 17.2068 6.58045 16.3417 7.26468 15.4885C7.30673 15.4388 7.34113 15.3771 7.39465 15.3393C7.47492 15.3354 7.55519 15.3453 7.63547 15.3493C9.15682 15.4169 10.6954 15.2817 12.1671 14.866C12.4404 14.7944 12.7137 14.7228 12.9755 14.6134C13.5049 14.3967 13.9942 14.0665 14.3803 13.629C14.8199 13.1398 15.1219 12.5332 15.3168 11.8988C15.527 11.2167 15.5978 10.4987 15.6551 9.78876C15.7207 9.01779 15.7386 8.24324 15.7086 7.46989C15.6608 6.50137 15.5385 5.52689 15.227 4.61008C15.0186 4.00152 14.7281 3.40689 14.2847 2.94749C14.0496 2.69691 13.7629 2.50798 13.4667 2.3449C12.8494 2.01477 12.1843 1.79203 11.5077 1.6389C10.6285 1.44201 9.72638 1.36047 8.82809 1.35252C7.77116 1.30717 6.7066 1.36883 5.67069 1.58759Z" fill="#8A8A8A"/>
<path d="M8.33498 3.40092C8.56816 3.387 8.80324 3.41285 9.0345 3.4407C9.73785 3.53616 10.4259 3.78475 11.0165 4.19443C11.5956 4.59019 12.0715 5.14107 12.4079 5.76951C12.8475 6.59484 13.0501 7.54546 13.0615 8.48414C13.0596 8.55773 13.0711 8.63728 13.029 8.70291C12.9526 8.82621 12.7653 8.85007 12.664 8.74666C12.599 8.68501 12.5971 8.58955 12.5952 8.50602C12.5856 7.67274 12.4193 6.8315 12.0447 6.09169C11.7312 5.46488 11.2628 4.93631 10.6877 4.56036C10.0245 4.12681 9.24283 3.90606 8.46304 3.89214C8.38085 3.88816 8.28338 3.89413 8.22031 3.82651C8.09417 3.69923 8.1515 3.42518 8.33498 3.40092Z" fill="#8A8A8A"/>
<path d="M5.20053 3.95777C5.42414 3.9001 5.66687 4.00152 5.81022 4.1825C6.14469 4.61008 6.48107 5.03567 6.75055 5.51098C6.85567 5.7019 6.98564 5.88088 7.0468 6.09368C7.11369 6.35221 7.064 6.65848 6.87479 6.8494C6.72762 6.98861 6.56516 7.10992 6.41417 7.24516C6.27083 7.37045 6.21731 7.57927 6.24216 7.76621C6.26318 7.88156 6.30905 7.98895 6.34919 8.09634C6.60148 8.77052 6.98373 9.39499 7.4883 9.89416C7.94322 10.3457 8.49682 10.6753 9.1014 10.8547C9.29826 10.9084 9.5257 10.8448 9.65566 10.6797C9.78181 10.5186 9.89648 10.3476 10.0284 10.1925C10.1755 10.0234 10.4087 9.96178 10.6228 9.98763C10.768 10.0016 10.9018 10.0751 11.0241 10.1527C11.5096 10.4629 11.9836 10.801 12.4098 11.1968C12.5321 11.3161 12.6754 11.4275 12.729 11.6005C12.815 11.8372 12.7347 12.0977 12.6162 12.3045C12.4365 12.6108 12.2206 12.8972 11.9568 13.1318C11.7275 13.3307 11.4465 13.4958 11.1388 13.4958C10.9343 13.5057 10.7489 13.4083 10.5616 13.3387C9.86208 13.0543 9.20269 12.6784 8.56242 12.2767C7.97185 11.9048 7.4042 11.4931 6.89199 11.0118C5.91916 10.103 5.15848 8.97139 4.56599 7.76422C4.2793 7.19743 4.00599 6.6187 3.8034 6.01214C3.71842 5.74333 3.73552 5.45088 3.85118 5.19477C4.02128 4.80696 4.32135 4.50268 4.64817 4.25409C4.81636 4.13119 4.99411 4.00391 5.20053 3.95777Z" fill="#8A8A8A"/>
<path d="M8.69812 4.65224C8.78222 4.63036 8.87205 4.65025 8.95805 4.65621C9.63846 4.73179 10.315 4.98635 10.8349 5.45967C11.2344 5.81565 11.5306 6.29295 11.695 6.81201C11.832 7.23478 11.8885 7.6813 11.8612 8.12657C11.8517 8.30357 11.6185 8.37516 11.4962 8.27175C11.4064 8.2101 11.4025 8.08679 11.4045 7.98736C11.4121 7.28533 11.1961 6.56342 10.7355 6.03839C10.2806 5.52331 9.6289 5.23295 8.96761 5.1534C8.86058 5.1355 8.74399 5.14545 8.64652 5.09175C8.49553 4.99191 8.52611 4.70991 8.69812 4.65224Z" fill="#8A8A8A"/>
<path d="M9.04215 5.94293C9.12433 5.91708 9.21225 5.93498 9.29635 5.94293C9.64993 5.98668 10.0073 6.12391 10.2615 6.39437C10.5788 6.73445 10.7088 7.22368 10.7088 7.68904C10.7126 7.79843 10.6208 7.88593 10.5234 7.90383C10.4144 7.92968 10.2883 7.86405 10.2615 7.74672C10.2348 7.62938 10.2424 7.50807 10.2195 7.39073C10.1717 7.09839 10.0436 6.80207 9.80092 6.63302C9.58495 6.47392 9.31546 6.4421 9.05935 6.41028C8.8472 6.37051 8.83956 6.00458 9.04215 5.94293Z" fill="#8A8A8A"/>
</svg>
