<svg width="16" height="16" viewBox="0 0 16 16" fill="none" xmlns="http://www.w3.org/2000/svg">
<path d="M8 0.8C11.96 0.8 15.2 4.04 15.2 8C15.2 11.96 11.96 15.2 8 15.2C4.04 15.2 0.8 11.96 0.8 8C0.8 4.04 4.04 0.8 8 0.8ZM8 0C3.6 0 0 3.6 0 8C0 12.4 3.6 16 8 16C12.4 16 16 12.4 16 8C16 3.6 12.4 0 8 0Z" fill="#8A8A8A"/>
<path d="M11.08 4.88C11.2 4.88 11.36 4.84 11.48 4.92C11.6 4.96 11.68 5.12 11.64 5.24C11.6 5.68 11.56 6.12 11.48 6.56C11.28 8.04 11 9.52 10.76 11C10.76 11.12 10.72 11.24 10.64 11.32C10.48 11.56 10.2 11.68 9.92 11.6C9.8 11.56 9.72 11.52 9.64 11.44C8.8 10.88 7.96 10.32 7.12 9.72C7 9.64 6.96 9.44 6.96 9.32C7 9.12 7.16 8.92 7.32 8.8C8 8.12 8.76 7.52 9.4 6.84C9.44 6.8 9.48 6.72 9.48 6.64C9.48 6.6 9.4 6.6 9.36 6.6C9.2 6.64 9.08 6.76 8.92 6.84C8 7.48 7.12 8.12 6.16 8.72C6 8.8 5.88 8.92 5.68 8.96C5.4 9.04 5.12 9 4.88 8.92C4.68 8.88 4.48 8.8 4.32 8.76C4.2 8.72 4.04 8.64 3.92 8.6C3.8 8.56 3.64 8.48 3.52 8.4C3.44 8.36 3.4 8.28 3.4 8.2C3.4 8.12 3.48 8.08 3.56 8.04C4.2 7.72 4.84 7.4 5.48 7.12C6.12 6.84 6.76 6.56 7.36 6.32C8.32 5.92 9.32 5.52 10.32 5.12C10.6 5.04 10.84 4.92 11.08 4.88Z" fill="#8A8A8A"/>
</svg>
