<svg width="20" height="20" viewBox="0 0 20 20" fill="none" xmlns="http://www.w3.org/2000/svg">
<path d="M17.2556 4.30077C17.4284 4.12102 17.6655 3.99399 17.9187 4.00022C18.3719 3.98943 18.7847 4.38878 18.7975 4.84418C18.8219 5.13519 18.6647 5.40419 18.4589 5.59557C15.0484 9.02579 11.6404 12.4585 8.23111 15.89C8.05749 16.0623 7.89294 16.2619 7.65622 16.3475C7.33456 16.472 6.95433 16.367 6.71926 16.1187C5.04081 14.4312 3.36442 12.7425 1.68761 11.0537C1.4876 10.8603 1.26573 10.6535 1.21707 10.3642C1.11851 9.90089 1.45956 9.41062 1.91897 9.32925C2.21218 9.26491 2.51859 9.38281 2.72561 9.59369C3.9562 10.832 5.18597 12.0712 6.41697 13.3087C6.73246 13.6221 7.03763 13.9463 7.36177 14.2506C7.94037 13.691 8.49834 13.1094 9.06909 12.5411C11.7979 9.7942 14.5272 7.0477 17.2556 4.30077Z" fill="#FAB31B"/>
</svg>
